<svg id="visual" viewBox="0 0 960 100" width="960" height="100" xmlns="http://www.w3.org/2000/svg" xmlns:xlink="http://www.w3.org/1999/xlink" version="1.1"><rect x="0" y="0" width="960" height="100" fill="#20242b"></rect><path d="M0 29L22.8 28.8C45.7 28.7 91.3 28.3 137 29.2C182.7 30 228.3 32 274 34C319.7 36 365.3 38 411.2 37.2C457 36.3 503 32.7 548.8 30.3C594.7 28 640.3 27 686 28C731.7 29 777.3 32 823 33.3C868.7 34.7 914.3 34.3 937.2 34.2L960 34L960 0L937.2 0C914.3 0 868.7 0 823 0C777.3 0 731.7 0 686 0C640.3 0 594.7 0 548.8 0C503 0 457 0 411.2 0C365.3 0 319.7 0 274 0C228.3 0 182.7 0 137 0C91.3 0 45.7 0 22.8 0L0 0Z" fill="#252a33"></path><path d="M0 28L22.8 27C45.7 26 91.3 24 137 22.7C182.7 21.3 228.3 20.7 274 21.3C319.7 22 365.3 24 411.2 25.7C457 27.3 503 28.7 548.8 28.8C594.7 29 640.3 28 686 27.5C731.7 27 777.3 27 823 26C868.7 25 914.3 23 937.2 22L960 21L960 0L937.2 0C914.3 0 868.7 0 823 0C777.3 0 731.7 0 686 0C640.3 0 594.7 0 548.8 0C503 0 457 0 411.2 0C365.3 0 319.7 0 274 0C228.3 0 182.7 0 137 0C91.3 0 45.7 0 22.8 0L0 0Z" fill="#2a2f3b"></path><path d="M0 23L22.8 21.5C45.7 20 91.3 17 137 15.8C182.7 14.7 228.3 15.3 274 16.7C319.7 18 365.3 20 411.2 20C457 20 503 18 548.8 17.7C594.7 17.3 640.3 18.7 686 19C731.7 19.3 777.3 18.7 823 19C868.7 19.3 914.3 20.7 937.2 21.3L960 22L960 0L937.2 0C914.3 0 868.7 0 823 0C777.3 0 731.7 0 686 0C640.3 0 594.7 0 548.8 0C503 0 457 0 411.2 0C365.3 0 319.7 0 274 0C228.3 0 182.7 0 137 0C91.3 0 45.7 0 22.8 0L0 0Z" fill="#2f3543"></path><path d="M0 15L22.8 15.3C45.7 15.7 91.3 16.3 137 15.7C182.7 15 228.3 13 274 11.7C319.7 10.3 365.3 9.7 411.2 9.5C457 9.3 503 9.7 548.8 10.2C594.7 10.7 640.3 11.3 686 11.5C731.7 11.7 777.3 11.3 823 11.8C868.7 12.3 914.3 13.7 937.2 14.3L960 15L960 0L937.2 0C914.3 0 868.7 0 823 0C777.3 0 731.7 0 686 0C640.3 0 594.7 0 548.8 0C503 0 457 0 411.2 0C365.3 0 319.7 0 274 0C228.3 0 182.7 0 137 0C91.3 0 45.7 0 22.8 0L0 0Z" fill="#353b4b"></path><path d="M0 10L22.8 9.5C45.7 9 91.3 8 137 8C182.7 8 228.3 9 274 9.3C319.7 9.7 365.3 9.3 411.2 8.7C457 8 503 7 548.8 6.3C594.7 5.7 640.3 5.3 686 5C731.7 4.7 777.3 4.3 823 4.2C868.7 4 914.3 4 937.2 4L960 4L960 0L937.2 0C914.3 0 868.7 0 823 0C777.3 0 731.7 0 686 0C640.3 0 594.7 0 548.8 0C503 0 457 0 411.2 0C365.3 0 319.7 0 274 0C228.3 0 182.7 0 137 0C91.3 0 45.7 0 22.8 0L0 0Z" fill="#3b4153"></path></svg>